<?xml version="1.0" encoding="UTF-8" standalone="no"?>
<svg width="176px" height="99px" viewBox="0 0 176 99" version="1.1" xmlns="http://www.w3.org/2000/svg" xmlns:xlink="http://www.w3.org/1999/xlink" xmlns:sketch="http://www.bohemiancoding.com/sketch/ns">
    <title>lynr_wordmark</title>
    <description>Created with Sketch (http://www.bohemiancoding.com/sketch)</description>
    <defs></defs>
    <g id="Page-1" stroke="none" stroke-width="1" fill="none" fill-rule="evenodd" sketch:type="MSPage">
        <g id="lynr_wordmark" sketch:type="MSLayerGroup" stroke="#979797" fill="#000000">
            <g id="Group" sketch:type="MSShapeGroup">
                <path d="M11.3448276,77 C4.72413793,77 1,73.5594918 1,65.9346993 L1,1 L6.17241379,1 L6.17241379,65.72592 C6.17241379,69.2751674 7.20689655,71.9849482 11.5517241,71.9849482 C13.6206897,71.9849482 14.5517241,71.9849482 16,71.7805185 L16,76.3736622 C14.862069,76.6868311 13.5172414,77 11.3448276,77 L11.3448276,77 Z" id="Shape"></path>
                <path d="M46.8161663,87.3546454 C44.2110855,94.1384498 39.8345497,98 32.7487298,98 C28.5806005,98 26.1839261,97.0563554 26.1839261,97.0563554 L26.1839261,92.6729741 C26.1839261,92.6729741 29.8310393,93.30352 32.5403233,93.30352 C37.5420785,93.30352 40.2513626,90.0681671 42.0271594,85.5804196 L45.3616628,77.0223894 L24,24 L29.6269746,24 L47.8625404,70.3386026 L65.3730254,24 L71,24 L46.8161663,87.3546454 L46.8161663,87.3546454 Z" id="Shape"></path>
                <path d="M120.806897,75.995696 L120.806897,42.2132532 C120.806897,33.226409 116.863425,28.0572519 107.415524,28.0572519 C94.6511285,28.0572519 90.1887787,39.0110443 90.1887787,50.1671268 L90.1887787,75.995696 L85,75.995696 L85,24.3428618 L89.5704493,24.3428618 L90.1931027,33.7428943 C93.1031428,27.2351795 100.466885,23 107.735499,23 C119.674014,23 126,30.3383953 126,41.9076661 L126,76 L120.806897,76 L120.806897,75.995696 Z" id="Shape"></path>
                <path d="M169.864202,28.0411648 C156.784918,28.0411648 153.227353,39.7936809 153.227353,50.8116647 L153.227353,76 L148,76 L148,23.5246659 L152.603908,23.5246659 L153.231713,34.122917 C155.538027,26.8825276 162.548523,23 169.868561,23 C171.547069,23 173.325852,23 175,23.3147995 L175,28.5614585 C173.321492,28.146098 171.54271,28.0411648 169.864202,28.0411648 L169.864202,28.0411648 Z" id="Shape"></path>
            </g>
        </g>
    </g>
</svg>