<?xml version="1.0" encoding="UTF-8" standalone="no"?>
<svg width="80px" height="80px" viewBox="0 0 80 80" version="1.1" xmlns="http://www.w3.org/2000/svg" xmlns:xlink="http://www.w3.org/1999/xlink" xmlns:sketch="http://www.bohemiancoding.com/sketch/ns">
    <!-- Generator: Sketch 3.0.1 (7597) - http://www.bohemiancoding.com/sketch -->
    <title>logo.max</title>
    <description>Created with Sketch.</description>
    <defs></defs>
    <g id="General" stroke="none" stroke-width="1" fill="none" fill-rule="evenodd" sketch:type="MSPage">
        <g id="logo" sketch:type="MSLayerGroup" fill="#FFFFFF">
            <path d="M40,80 C62.09139,80 80,62.09139 80,40 C80,17.90861 62.09139,0 40,0 C17.90861,0 0,17.90861 0,40 C0,62.09139 17.90861,80 40,80 Z M22.7729685,48.6982488 C25.1780171,48.6982498 25.1750404,48.6982469 28.13916,48.6982479 C31.1032795,48.6982489 31.6875002,48.0360699 31.6875002,48.0360699 L48,24 L39.5824368,24.0125559 C39.5824368,24.0125559 38.3266593,24.25 37.3891593,24.875 C36.4516593,25.5 35.5688449,26.6872559 35.5688449,26.6872559 L20.8083257,47.7238136 C20.8083257,47.7238136 20.5141591,48.6982479 22.7729685,48.6982488 Z M40.1899414,49.0622552 L43.5024412,49.0622552 C44.8774412,49.0622552 48.3125,49.4378122 49.1875,48.5625337 C50.0625,47.6872552 59.6013754,31.4997559 59.6013754,31.4997559 C59.6013754,31.4997559 60.7499786,29.5477457 59.6013746,29.4002427 C58.4290755,29.2496967 56.5999064,29.4002426 55.7250859,29.4002426 C54.862595,29.4002426 52.5811984,29.2506252 51.125,29.8122558 C49.6688015,30.3738865 48.8797251,32.0403806 48.8797251,32.0403806 L38.7524414,47.9997552 C38.7524414,47.9997552 38.3774414,49.0622552 40.1899414,49.0622552 Z" sketch:type="MSShapeGroup"></path>
        </g>
    </g>
</svg>