<?xml version="1.0" encoding="UTF-8" standalone="no"?>
<svg width="80px" height="80px" viewBox="0 0 80 80" version="1.1" xmlns="http://www.w3.org/2000/svg" xmlns:xlink="http://www.w3.org/1999/xlink" xmlns:sketch="http://www.bohemiancoding.com/sketch/ns">
    <!-- Generator: Sketch 3.0.1 (7597) - http://www.bohemiancoding.com/sketch -->
    <title>logo.max</title>
    <description>Created with Sketch.</description>
    <defs></defs>
    <g id="General" stroke="none" stroke-width="1" fill="none" fill-rule="evenodd" sketch:type="MSPage">
        <g id="logo" sketch:type="MSLayerGroup" fill="#FFFFFF">
            <path d="M40,80 C62.09139,80 80,62.09139 80,40 C80,17.90861 62.09139,0 40,0 C17.90861,0 0,17.90861 0,40 C0,62.09139 17.90861,80 40,80 Z M20.3213094,49.0105047 C22.6682838,49.4444718 26.3036241,49.4373995 27.9733807,49.0105047 C30.1941912,48.4427259 31.8608518,47.7112577 31.8608518,47.7112577 L48,24 L37.1307778,24.3248117 L33.837074,25.6240587 L18.3566666,48.0360694 C18.3566666,48.0360694 15.0513836,48.0360694 20.3213094,49.0105047 Z M37.3333333,49.3290254 C37.3333333,49.3290254 41.2640248,49.3387183 42.4467354,49.3290254 C44.7279423,49.3103297 48.5498282,48.5625337 48.5498282,48.5625337 C48.5498282,48.5625337 50.8576393,46.5672636 51.766323,45.3262357 C53.6317476,42.7785461 56.6201758,38.7675539 58.6941581,35.6173416 C60.3474741,33.1060874 61.3333333,31.1035574 61.3333333,31.1035574 C61.3333333,31.1035574 60.7499786,29.5477457 59.6013746,29.4002427 C58.4290755,29.2496967 56.5999064,29.4002426 55.7250859,29.4002426 C53.9931271,29.4002426 52.0962199,29.4002426 52.0962199,29.4002426 L48.8797251,32.0403806 L37.8281787,47.1147162 L37.3333333,49.3290254 Z" sketch:type="MSShapeGroup"></path>
        </g>
    </g>
</svg>