<?xml version="1.0" encoding="UTF-8" standalone="no"?>
<svg width="176px" height="100px" viewBox="0 0 176 100" version="1.1" xmlns="http://www.w3.org/2000/svg" xmlns:xlink="http://www.w3.org/1999/xlink" xmlns:sketch="http://www.bohemiancoding.com/sketch/ns">
    <title>wordmark</title>
    <description>Created with Sketch (http://www.bohemiancoding.com/sketch)</description>
    <defs></defs>
    <g id="General" stroke="none" stroke-width="1" fill="none" fill-rule="evenodd" sketch:type="MSPage">
        <g id="wordmark" sketch:type="MSLayerGroup" transform="translate(1.000000, 1.000000)" stroke="#979797" fill="#000000">
            <g id="black" sketch:type="MSShapeGroup">
                <path d="M10.3448276,76 C3.72413793,76 0,72.5594918 0,64.9346993 L0,0 L5.17241379,0 L5.17241379,64.72592 C5.17241379,68.2751674 6.20689655,70.9849482 10.5517241,70.9849482 C12.6206897,70.9849482 13.5517241,70.9849482 15,70.7805185 L15,75.3736622 C13.862069,75.6868311 12.5172414,76 10.3448276,76 L10.3448276,76 Z" id="Shape"></path>
                <path d="M45.8161663,86.3546454 C43.2110855,93.1384498 38.8345497,97 31.7487298,97 C27.5806005,97 25.1839261,96.0563554 25.1839261,96.0563554 L25.1839261,91.6729741 C25.1839261,91.6729741 28.8310393,92.30352 31.5403233,92.30352 C36.5420785,92.30352 39.2513626,89.0681671 41.0271594,84.5804196 L44.3616628,76.0223894 L23,23 L28.6269746,23 L46.8625404,69.3386026 L64.3730254,23 L70,23 L45.8161663,86.3546454 L45.8161663,86.3546454 Z" id="Shape"></path>
                <path d="M119.806897,74.995696 L119.806897,41.2132532 C119.806897,32.226409 115.863425,27.0572519 106.415524,27.0572519 C93.6511285,27.0572519 89.1887787,38.0110443 89.1887787,49.1671268 L89.1887787,74.995696 L84,74.995696 L84,23.3428618 L88.5704493,23.3428618 L89.1931027,32.7428943 C92.1031428,26.2351795 99.4668846,22 106.735499,22 C118.674014,22 125,29.3383953 125,40.9076661 L125,75 L119.806897,75 L119.806897,74.995696 Z" id="Shape"></path>
                <path d="M168.864202,27.0411648 C155.784918,27.0411648 152.227353,38.7936809 152.227353,49.8116647 L152.227353,75 L147,75 L147,22.5246659 L151.603908,22.5246659 L152.231713,33.122917 C154.538027,25.8825276 161.548523,22 168.868561,22 C170.547069,22 172.325852,22 174,22.3147995 L174,27.5614585 C172.321492,27.146098 170.54271,27.0411648 168.864202,27.0411648 L168.864202,27.0411648 Z" id="Shape"></path>
            </g>
        </g>
    </g>
</svg>